#!OML:ASF H:\Terrain\Patient Classification 1\Animal1\Tuesday\Animal1.ASF
:FULLY-SPECIFIED
:DEGREES
1864
root 11.9303 14.1836 -6.61232 -354.428 -39.966 357.041
lowerback 6.70652 -3.08631 1.15048
upperback 1.27431 -3.9843 2.29789
thorax -2.35159 -1.99688 2.06496
lowerneck 3.68816 -0.369993 -8.41609
upperneck 15.0511 -2.4938 14.1477
head 4.05195 -1.19065 5.77243
rclavicle 7.88181e-014 -1.51076e-014
rhumerus 48.8773 13.7919 -56.739
rradius 84.9455
rwrist 8.93781
rhand 35.3707 -7.04302
rfingers 7.12502
rthumb 58.4597 -22.3447
lclavicle 7.88181e-014 -1.51076e-014
lhumerus 33.4371 -27.9068 73.6901
lradius 82.4583
lwrist -54.515
lhand 44.9381 62.1374
lfingers 7.12502
lthumb 66.3397 -653.087
rfemur -54.2716 15.9425 7.26255
rtibia 57.102
rfoot -16.2386 -0.159051
rtoes -32.4817
lfemur -4.55045 -6.02995 1.16961
ltibia 58.1296
lfoot -18.5138 -3.70216
ltoes -25.588
1865
root 11.9315 14.1782 -6.61206 -354.465 -40.0354 357.102
lowerback 6.8273 -3.13637 0.990893
upperback 1.29853 -4.05708 2.46548
thorax -2.36863 -2.03266 2.33915
lowerneck 3.59272 -0.305346 -8.94927
upperneck 15.0758 -2.43261 14.4162
head 4.07177 -1.17363 5.95549
rclavicle 7.19104e-014 -2.22639e-014
rhumerus 49.8598 13.9569 -56.6488
rradius 84.7406
rwrist 8.4437
rhand 35.2006 -6.69665
rfingers 7.12502
rthumb 58.3118 -22.1349
lclavicle 7.19104e-014 -2.22639e-014
lhumerus 33.3317 -28.5875 73.251
lradius 83.0492
lwrist -54.4542
lhand 44.1591 61.8136
lfingers 7.12502
lthumb 65.7399 -652.292
rfemur -54.3604 15.9866 7.18451
rtibia 57.2022
rfoot -16.3718 0.560225
rtoes -31.9272
lfemur -4.55362 -5.91604 1.12922
ltibia 58.1414
lfoot -18.4776 -3.84672
ltoes -25.0986
1866
root 11.9312 14.1727 -6.61027 -354.559 -40.0872 357.257
lowerback 6.91307 -3.22433 0.700622
upperback 1.32436 -4.19116 2.62809
thorax -2.35238 -2.09848 2.68413
lowerneck 3.26003 -0.209038 -8.89791
upperneck 15.5029 -2.2566 13.8836
head 4.23597 -1.08819 5.78404
rclavicle -1.31198e-014 -4.77083e-015
rhumerus 50.8359 14.173 -56.6255
rradius 84.4308
rwrist 8.14471
rhand 35.004 -7.13568
rfingers 7.12502
rthumb 58.1407 -22.7302
lclavicle -1.31198e-014 -4.77083e-015
lhumerus 32.9484 -28.803 73.1825
lradius 84.03
lwrist -54.2116
lhand 44.5713 60.5579
lfingers 7.12502
lthumb 66.0585 -654.132
rfemur -54.4786 15.9199 7.13401
rtibia 57.2971
rfoot -16.5999 0.842932
rtoes -31.9638
lfemur -4.51662 -5.82379 1.00908
ltibia 58.132
lfoot -18.5081 -3.82527
ltoes -25.0239
1867
root 11.9297 14.175 -6.60955 -354.608 -40.1185 357.417
lowerback 6.94351 -3.19912 0.616073
upperback 1.30097 -4.16275 2.59685
thorax -2.39091 -2.08317 2.69956
lowerneck 2.9769 -0.242528 -8.44941
upperneck 16.0364 -2.2712 13.2985
head 4.44498 -1.08055 5.52383
rclavicle 8.52786e-014 -4.37326e-015
rhumerus 51.2852 13.9852 -57.201
rradius 83.9332
rwrist 8.5524
rhand 34.9206 -7.18403
rfingers 7.12502
rthumb 58.0679 -22.8443
lclavicle 8.52786e-014 -4.37326e-015
lhumerus 32.5588 -29.0912 73.3813
lradius 85.2275
lwrist -53.4849
lhand 46.2472 59.0299
lfingers 7.12502
lthumb 67.3243 -658.211
rfemur -54.5767 15.8525 7.05115
rtibia 57.3164
rfoot -16.6713 0.930648
rtoes -32.2071
lfemur -4.5087 -5.73538 0.890605
ltibia 58.1001
lfoot -18.5234 -3.81775
ltoes -25.2263
1868
root 11.9262 14.1868 -6.60969 -354.683 -40.1682 357.522
lowerback 7.13577 -3.00451 0.728578
upperback 1.23743 -3.89118 2.47237
thorax -2.59067 -1.94632 2.49992
lowerneck 2.94256 -0.43467 -8.17288
upperneck 16.2359 -2.54979 13.2242
head 4.54126 -1.2014 5.44681
rclavicle -1.86361e-014 7.95139e-016
rhumerus 51.4081 13.2652 -57.9375
rradius 83.0412
rwrist 9.05918
rhand 34.9884 -6.58515
rfingers 7.12502
rthumb 58.1271 -22.192
lclavicle -1.86361e-014 7.95139e-016
lhumerus 32.4924 -30.6353 73.0245
lradius 86.3688
lwrist -53.3479
lhand 45.0564 61.5594
lfingers 7.12502
lthumb 66.4299 -653.84
rfemur -54.4961 15.8924 6.98003
rtibia 57.2408
rfoot -16.6365 0.424925
rtoes -33.2868
lfemur -4.45552 -5.71819 0.79506
ltibia 58.0462
lfoot -18.4121 -4.2695
ltoes -22.9846
1869
root 11.9246 14.1926 -6.60939 -354.614 -40.2015 357.372
lowerback 7.32794 -2.85346 1.16813
upperback 1.21153 -3.65384 2.32473
thorax -2.7701 -1.83036 2.09372
lowerneck 3.20705 -0.518778 -8.17934
upperneck 15.9976 -2.71205 13.6314
head 4.44265 -1.27575 5.57255
rclavicle 8.84095e-014 -2.3059e-014
rhumerus 51.6002 12.4161 -58.7407
rradius 81.886
rwrist 9.60863
rhand 34.358 -6.30723
rfingers 7.12502
rthumb 57.5765 -22.4027
lclavicle 8.84095e-014 -2.3059e-014
lhumerus 32.4437 -31.9121 72.7102
lradius 87.6098
lwrist -52.6165
lhand 44.1744 62.2451
lfingers 7.12502
lthumb 65.7518 -651.881
rfemur -54.3853 16.0196 7.08458
rtibia 57.1513
rfoot -16.4711 -0.0535532
rtoes -34.064
lfemur -4.44485 -5.68689 0.947839
ltibia 58.0344
lfoot -18.3179 -4.79864
ltoes -20.6579
